<svg width="544" height="312" viewBox="0 0 544 312" fill="none" xmlns="http://www.w3.org/2000/svg">
<g clip-path="url(#clip0_1_1638)">
<path d="M80 40C80 62.0914 62.0914 80 40 80C17.9086 80 0 62.0914 0 40C0 17.9086 17.9086 0 40 0C62.0914 0 80 17.9086 80 40Z" fill="black"/>
<path d="M312 156C312 178.091 294.091 196 272 196C249.909 196 232 178.091 232 156C232 133.909 249.909 116 272 116C294.091 116 312 133.909 312 156Z" fill="black"/>
<path d="M544 272C544 294.091 526.091 312 504 312C481.909 312 464 294.091 464 272C464 249.909 481.909 232 504 232C526.091 232 544 249.909 544 272Z" fill="black"/>
<path d="M57 214C57 200.705 65.9201 189.23 73.2985 178.171C77.5321 171.825 80 164.201 80 156C80 133.909 62.0914 116 40 116C17.9086 116 0 133.909 0 156C0 164.201 2.46789 171.825 6.70152 178.171C14.0799 189.23 23 200.705 23 214C23 227.295 14.0799 238.77 6.70151 249.829C2.46789 256.175 0 263.799 0 272C0 294.091 17.9086 312 40 312C62.0914 312 80 294.091 80 272C80 263.799 77.5321 256.175 73.2985 249.829C65.9201 238.77 57 227.295 57 214Z" fill="black"/>
<path d="M173 214C173 200.705 181.92 189.23 189.298 178.171C193.532 171.825 196 164.201 196 156C196 133.909 178.091 116 156 116C133.909 116 116 133.909 116 156C116 164.201 118.468 171.825 122.702 178.171C130.08 189.23 139 200.705 139 214C139 227.295 130.08 238.77 122.702 249.829C118.468 256.175 116 263.799 116 272C116 294.091 133.909 312 156 312C178.091 312 196 294.091 196 272C196 263.799 193.532 256.175 189.298 249.829C181.92 238.77 173 227.295 173 214Z" fill="black"/>
<path d="M405 214C405 200.705 413.92 189.23 421.298 178.171C425.532 171.825 428 164.201 428 156C428 133.909 410.091 116 388 116C365.909 116 348 133.909 348 156C348 164.201 350.468 171.825 354.702 178.171C362.08 189.23 371 200.705 371 214C371 227.295 362.08 238.77 354.702 249.829C350.468 256.175 348 263.799 348 272C348 294.091 365.909 312 388 312C410.091 312 428 294.091 428 272C428 263.799 425.532 256.175 421.298 249.829C413.92 238.77 405 227.295 405 214Z" fill="black"/>
</g>
<defs>
<clipPath id="clip0_1_1638">
<rect width="544" height="312" fill="white"/>
</clipPath>
</defs>
</svg>
