<svg width="40" height="40" viewBox="0 0 40 40" fill="none" xmlns="http://www.w3.org/2000/svg">
<g clip-path="url(#clip0_4833_20120)">
<path d="M20.0459 0C31.0662 0.000191726 39.9998 8.93384 40 19.9541V20.0459C39.9998 31.0662 31.0662 39.9998 20.0459 40H19.9541C8.93384 39.9998 0.000191738 31.0662 0 20.0459V19.9541C0.000192757 8.93384 8.93384 0.000192769 19.9541 0H20.0459ZM11.0879 11C9.43104 11 8.08789 12.3431 8.08789 14V26C8.08789 27.0298 8.60695 27.9373 9.39746 28.4775L9.63965 28.7686L9.74512 28.6797C10.1494 28.8826 10.6047 29 11.0879 29H29.0879C29.5269 28.9999 29.9426 28.9029 30.3184 28.7334L30.3604 28.7686L30.4365 28.6758C31.4148 28.1816 32.0879 27.1709 32.0879 26V14C32.0879 12.3433 30.7445 11.0003 29.0879 11H11.0879ZM22.1104 21.9121L28.2324 27H11.7676L17.8896 21.9121L18.0537 21.7754C19.1747 22.7339 20.8242 22.7335 21.9453 21.7754L22.1104 21.9121ZM30.0879 25.9414L23.4443 20.4189L30.0879 14.3809V25.9414ZM16.5547 20.4189L10.0879 25.7949V14.54L16.5547 20.4189ZM28.6328 13L20.6729 20.2373C20.2915 20.5839 19.7085 20.5839 19.3271 20.2373L11.3672 13H28.6328Z" fill="black"/>
</g>
<defs>
<clipPath id="clip0_4833_20120">
<rect width="40" height="40" fill="white"/>
</clipPath>
</defs>
</svg>
