<svg width="40" height="40" viewBox="0 0 40 40" fill="none" xmlns="http://www.w3.org/2000/svg">
<path d="M21.809 33C28.1314 32.1149 32.9982 26.6606 32.9982 20.0632H33C33 12.8488 27.1795 7 20 7C12.8205 7 7 12.8488 7 20.0632C7 26.5645 11.7274 31.9575 17.9168 32.9588L17.9168 24.1683H14.6859V20.335H17.9168V16.8532C17.9168 14.6931 19.6593 12.9412 21.8099 12.9412V12.943C21.8131 12.943 21.816 12.9426 21.819 12.9421C21.822 12.9417 21.8249 12.9412 21.8281 12.9412H25.3131V16.2564H23.0359C22.3592 16.2564 21.8099 16.8083 21.8099 17.4884L21.809 17.4893V20.335H25.3122L24.7575 24.1683H21.809L21.809 33Z" fill="black"/>
</svg>
