<svg width="32" height="32" viewBox="0 0 32 32" fill="none" xmlns="http://www.w3.org/2000/svg">
<g clip-path="url(#clip0_3808_20557)">
<path d="M18.2217 31.8464C26.0011 30.7623 31.9895 24.0816 31.9895 16.0006H31.9917C31.9917 7.16393 24.8299 0 15.9959 0C7.16182 0 0 7.16393 0 16.0006C0 23.9638 5.81688 30.5695 13.4326 31.796L13.4326 21.0288H9.45718V16.3335H13.4326V12.0688C13.4326 9.42297 15.5767 7.27715 18.2228 7.27715V7.27939C18.2268 7.27939 18.2304 7.27883 18.234 7.27827C18.2377 7.27771 18.2413 7.27715 18.2453 7.27715H22.5334V11.3378H19.7314C18.8987 11.3378 18.2228 12.0139 18.2228 12.8469L18.2217 12.848V16.3335H22.5323L21.8497 21.0288H18.2217L18.2217 31.8464Z" fill="black"/>
</g>
<defs>
<clipPath id="clip0_3808_20557">
<rect width="32" height="32" fill="white"/>
</clipPath>
</defs>
</svg>
