<svg width="40" height="40" viewBox="0 0 40 40" fill="none" xmlns="http://www.w3.org/2000/svg">
<g clip-path="url(#clip0_4905_15915)">
<path d="M20.0459 0C31.0662 0.000191726 39.9998 8.93384 40 19.9541V20.0459C39.9998 31.0662 31.0662 39.9998 20.0459 40H19.9541C8.93384 39.9998 0.000191738 31.0662 0 20.0459V19.9541C0.000192757 8.93384 8.93384 0.000192769 19.9541 0H20.0459ZM20 18C18.1435 18 16.3626 18.7371 15.0498 20.0498C13.7371 21.3626 13 23.1435 13 25C13 26.8565 13.7371 28.6374 15.0498 29.9502C16.3626 31.2629 18.1435 32 20 32C21.8565 32 23.6374 31.263 24.9502 29.9502C26.263 28.6374 27 26.8565 27 25C27 23.1435 26.263 21.3626 24.9502 20.0498C23.6374 18.737 21.8565 18 20 18ZM8 17.5L13.2422 21.7686C14.4523 19.2478 17.0232 17.5 20 17.5C22.9778 17.5 25.5477 19.2488 26.7578 21.7686L32 17.5L20 8L8 17.5Z" fill="black"/>
</g>
<defs>
<clipPath id="clip0_4905_15915">
<rect width="40" height="40" fill="white"/>
</clipPath>
</defs>
</svg>
