<svg width="40" height="40" viewBox="0 0 40 40" fill="none" xmlns="http://www.w3.org/2000/svg">
<path d="M13.242 21.769L8 17.5L20 8L32 17.5L26.758 21.769C25.548 19.249 22.978 17.5 20 17.5C17.023 17.5 14.452 19.248 13.242 21.769ZM20 18C18.1435 18 16.363 18.7375 15.0503 20.0503C13.7375 21.363 13 23.1435 13 25C13 26.8565 13.7375 28.637 15.0503 29.9497C16.363 31.2625 18.1435 32 20 32C21.8565 32 23.637 31.2625 24.9497 29.9497C26.2625 28.637 27 26.8565 27 25C27 23.1435 26.2625 21.363 24.9497 20.0503C23.637 18.7375 21.8565 18 20 18Z" fill="black"/>
</svg>
