<svg width="32" height="32" viewBox="0 0 32 32" fill="none" xmlns="http://www.w3.org/2000/svg">
<g clip-path="url(#clip0_428_4698)">
<path fill-rule="evenodd" clip-rule="evenodd" d="M16.0317 0H15.9589C7.14504 0 0 7.14713 0 15.9636V16.0364C0 24.8529 7.14504 32 15.9589 32H16.0317C24.8455 32 31.9906 24.8529 31.9906 16.0364V15.9636C31.9906 7.14713 24.8455 0 16.0317 0ZM7.62918 10.636C7.20777 10.2448 6.99819 9.76045 6.99819 9.18419C6.99819 8.60794 7.20889 8.10231 7.62918 7.70992C8.0506 7.31865 8.59306 7.12246 9.25769 7.12246C9.92231 7.12246 10.4435 7.31865 10.8638 7.70992C11.2852 8.10119 11.4948 8.59337 11.4948 9.18419C11.4948 9.77502 11.2841 10.2448 10.8638 10.636C10.4424 11.0273 9.90774 11.2235 9.25769 11.2235C8.60763 11.2235 8.0506 11.0273 7.62918 10.636ZM11.1406 12.8805V24.8764H7.35123V12.8805H11.1406ZM24.9935 17.7607C24.9935 16.1934 24.5811 14.9624 23.755 14.0655V14.0644C22.9301 13.1686 21.8251 12.7202 20.442 12.7202C19.6653 12.7202 18.9671 12.8715 18.3462 13.1753C17.7252 13.4792 17.231 13.8917 16.8645 14.4142V12.8468H13.2443V24.6645H16.8645V18.2473C16.8645 17.4569 17.0696 16.8425 17.4786 16.4053C17.8877 15.9669 18.4392 15.7483 19.1296 15.7483C19.82 15.7483 20.3714 15.968 20.7805 16.4053C21.1896 16.8425 21.3947 17.4569 21.3947 18.2473V24.6645H24.9935V17.7607Z" fill="white"/>
</g>
<defs>
<clipPath id="clip0_428_4698">
<rect width="32" height="32" fill="white"/>
</clipPath>
</defs>
</svg>
