<svg width="32" height="32" viewBox="0 0 32 32" fill="none" xmlns="http://www.w3.org/2000/svg">
<g clip-path="url(#clip0_428_4700)">
<path d="M11.5553 8.2884H8.94387L20.4779 23.7138H23.0893L11.5553 8.2884Z" fill="white"/>
<path fill-rule="evenodd" clip-rule="evenodd" d="M18.2217 31.8464C26.0011 30.7623 31.9894 24.0816 31.9894 16.0006H31.9917C31.9917 7.16393 24.8299 0 15.9958 0C7.16181 0 0 7.16393 0 16.0006C0 23.9638 5.81687 30.5695 13.4326 31.796C14.2665 31.9305 15.1228 32 15.9947 32C16.7501 32 17.4943 31.9473 18.2217 31.8464ZM13.8641 16.9232L6.48712 7.05742H12.174L17.0102 13.5251L22.9952 7.05742H24.6663L17.7566 14.524L25.5483 24.9448H19.8626L14.6117 17.9221L8.11226 24.9448H6.44116L13.8641 16.9232Z" fill="white"/>
</g>
<defs>
<clipPath id="clip0_428_4700">
<rect width="32" height="32" fill="white"/>
</clipPath>
</defs>
</svg>
