<svg width="32" height="32" viewBox="0 0 32 32" fill="none" xmlns="http://www.w3.org/2000/svg">
<g clip-path="url(#clip0_428_4701)">
<path d="M15.957 0.210938C24.7936 0.210938 31.957 7.37437 31.957 16.2109C31.957 25.0475 24.7936 32.2109 15.957 32.2109C7.1205 32.2109 -0.0429273 25.0475 -0.0429688 16.2109C-0.0429688 7.37437 7.12048 0.21094 15.957 0.210938ZM15.8906 9.06836C13.9636 9.07061 12.0364 9.07197 10.1094 9.07422C9.30446 9.07422 8.522 9.01192 7.77441 9.36035C7.13245 9.65941 6.62959 10.2284 6.32715 10.8613C5.90778 11.7417 5.82013 12.7392 5.76953 13.7129C5.67623 15.4859 5.68655 17.2633 5.79785 19.0352C5.87992 20.328 6.08767 21.7569 7.08691 22.5811C7.97276 23.3106 9.22315 23.3465 10.3721 23.3477C14.0193 23.351 17.6681 23.3552 21.3164 23.3574C21.7841 23.3585 22.2723 23.3496 22.749 23.2979C23.6866 23.1967 24.58 22.9272 25.1826 22.2324C25.7908 21.5321 25.9478 20.5577 26.04 19.6348C26.2649 17.3952 26.2627 15.1339 26.0322 12.8955C25.9063 11.6801 25.635 10.3359 24.6377 9.62988C23.8653 9.08251 22.85 9.06235 21.9023 9.06348C19.8988 9.06348 17.8941 9.06724 15.8906 9.06836ZM19.2188 16.21L13.7812 19.3496V13.0703L19.2188 16.21Z" fill="white"/>
</g>
<defs>
<clipPath id="clip0_428_4701">
<rect width="32" height="32" fill="white"/>
</clipPath>
</defs>
</svg>
