<svg width="84" height="48" viewBox="0 0 84 48" fill="none" xmlns="http://www.w3.org/2000/svg">
<g clip-path="url(#clip0_4457_14290)">
<path d="M12.3077 6.15385C12.3077 9.55252 9.55252 12.3077 6.15385 12.3077C2.75517 12.3077 0 9.55252 0 6.15385C0 2.75517 2.75517 0 6.15385 0C9.55252 0 12.3077 2.75517 12.3077 6.15385Z" fill="black"/>
<path d="M48 24C48 27.3987 45.2448 30.1538 41.8462 30.1538C38.4475 30.1538 35.6923 27.3987 35.6923 24C35.6923 20.6013 38.4475 17.8462 41.8462 17.8462C45.2448 17.8462 48 20.6013 48 24Z" fill="black"/>
<path d="M83.6923 41.8462C83.6923 45.2448 80.9371 48 77.5385 48C74.1398 48 71.3846 45.2448 71.3846 41.8462C71.3846 38.4475 74.1398 35.6923 77.5385 35.6923C80.9371 35.6923 83.6923 38.4475 83.6923 41.8462Z" fill="black"/>
<path d="M8.76923 32.9231C8.76923 30.8777 10.1416 29.1124 11.2767 27.4109C11.928 26.4346 12.3077 25.2617 12.3077 24C12.3077 20.6013 9.55252 17.8462 6.15385 17.8462C2.75517 17.8462 0 20.6013 0 24C0 25.2617 0.379676 26.4346 1.031 27.4109C2.16614 29.1124 3.53846 30.8777 3.53846 32.9231C3.53846 34.9684 2.16614 36.7338 1.031 38.4352C0.379675 39.4115 0 40.5845 0 41.8462C0 45.2448 2.75517 48 6.15385 48C9.55252 48 12.3077 45.2448 12.3077 41.8462C12.3077 40.5845 11.928 39.4115 11.2767 38.4352C10.1416 36.7338 8.76923 34.9684 8.76923 32.9231Z" fill="black"/>
<path d="M26.6154 32.9231C26.6154 30.8777 27.9877 29.1124 29.1228 27.4109C29.7742 26.4346 30.1538 25.2617 30.1538 24C30.1538 20.6013 27.3987 17.8462 24 17.8462C20.6013 17.8462 17.8462 20.6013 17.8462 24C17.8462 25.2617 18.2258 26.4346 18.8772 27.4109C20.0123 29.1124 21.3846 30.8777 21.3846 32.9231C21.3846 34.9684 20.0123 36.7338 18.8772 38.4352C18.2258 39.4115 17.8462 40.5845 17.8462 41.8462C17.8462 45.2448 20.6013 48 24 48C27.3987 48 30.1538 45.2448 30.1538 41.8462C30.1538 40.5845 29.7742 39.4115 29.1228 38.4352C27.9877 36.7338 26.6154 34.9684 26.6154 32.9231Z" fill="black"/>
<path d="M62.3077 32.9231C62.3077 30.8777 63.68 29.1124 64.8151 27.4109C65.4665 26.4346 65.8462 25.2617 65.8462 24C65.8462 20.6013 63.091 17.8462 59.6923 17.8462C56.2936 17.8462 53.5385 20.6013 53.5385 24C53.5385 25.2617 53.9181 26.4346 54.5695 27.4109C55.7046 29.1124 57.0769 30.8777 57.0769 32.9231C57.0769 34.9684 55.7046 36.7338 54.5695 38.4352C53.9181 39.4115 53.5385 40.5845 53.5385 41.8462C53.5385 45.2448 56.2936 48 59.6923 48C63.091 48 65.8462 45.2448 65.8462 41.8462C65.8462 40.5845 65.4665 39.4115 64.8151 38.4352C63.68 36.7338 62.3077 34.9684 62.3077 32.9231Z" fill="black"/>
</g>
<defs>
<clipPath id="clip0_4457_14290">
<rect width="83.6923" height="48" fill="white"/>
</clipPath>
</defs>
</svg>
